<svg xmlns="http://www.w3.org/2000/svg" xmlns:xlink="http://www.w3.org/1999/xlink" version="1.1" width="1000" height="1000"><metadata><rdf:RDF xmlns:rdf="http://www.w3.org/1999/02/22-rdf-syntax-ns#" xmlns:dc="http://purl.org/dc/elements/1.1/"><rdf:Description><dc:creator>RealFaviconGenerator</dc:creator><dc:source>https://realfavicongenerator.net</dc:source></rdf:Description></rdf:RDF></metadata><g clip-path="url(#SvgjsClipPath1001)"><rect width="1000" height="1000" fill="#140f0c"></rect><g transform="matrix(1.5625,0,0,1.5625,100,100)"><svg xmlns="http://www.w3.org/2000/svg" width="512" height="512" viewBox="0 0 512 512" fill="none"><g clip-path="url(#clip0_123_30)">
<path d="M512 0H0V512H512V0Z" fill="#140f0c"></path>
<mask id="mask0_123_30" style="mask-type:luminance" maskUnits="userSpaceOnUse" x="156" y="106" width="199" height="300">
<path d="M355 106H156V406H355V106Z" fill="white"></path>
</mask>
<g mask="url(#mask0_123_30)">
<path fill-rule="evenodd" clip-rule="evenodd" d="M211.808 337.079C210.735 339.618 209.907 342.279 209.297 344.989C187.823 318.769 183.142 312.812 180.754 279.193H181.266C182.679 274.579 182.947 267.133 185.507 265.326C186.336 260.15 186.604 255.365 186.165 251.044C185.775 247.284 184.873 243.866 183.313 240.888C183.264 218.793 184.605 201.093 190.723 198.554C194.379 190.985 199.255 189.105 204.861 190.497C205.933 184.955 203.861 178.583 201.058 171.503C205.714 173.627 210.248 180.854 212.1 190.692C224.629 187.616 240.424 187.592 259.608 190.692C263.264 193.817 267.384 195.014 271.82 194.794C278.523 194.525 284.056 192.035 289.882 192.206C293.124 192.304 296.293 194.818 299.876 195.209C301.753 195.404 303.654 195.526 305.531 195.551C314.842 195.697 323.544 193.866 331.856 189.569C365.494 172.235 348.992 129.73 318.182 121.771C299.632 116.986 276.427 119.745 256.439 112.763C251.174 110.932 245.568 108.686 239.571 106L250.418 120.014C232.576 114.032 223.874 111.347 211.296 118.988C219.169 117.963 225.312 118.451 227.359 119.574C217.292 122.162 207.567 126.752 201.278 133.002C209.419 132.758 218.779 135.346 225.19 140.058C209.663 140.058 198.036 137.372 187.311 138.495C181.266 139.13 164.617 142.841 173.1 151.557C174.855 153.363 177.512 153.9 180.705 153.559C181.266 157.489 173.173 158.417 169.419 160.98C163.155 165.277 155.647 172.675 156.013 180.878C156.183 184.711 158.231 188.104 161.96 191.083C156.037 201.435 157.817 214.74 165.909 230.414L172.442 243.5L176.366 279.193H176.512C177 324.823 182.582 397.528 243.13 405.634C248.249 406.317 254.757 405.976 262.557 404.682C301.899 414.545 343.069 365.18 346.335 330.316C347.895 314.789 348.553 299.237 347.749 283.686L346.189 278.144C346.384 278.534 346.555 278.9 346.774 279.193C346.774 270.038 346.408 265.033 348.358 256.098C350.771 245.014 347.725 234.687 350.576 226.02C353.063 218.427 357.694 217.133 353.087 205.976C348.968 194.77 341.314 191.791 330.467 196.234C330.174 196.845 330.491 198.041 331.466 199.164C336.39 204.95 334.269 207.587 336.585 215.766C337.511 218.988 338.949 221.845 340.095 226.142C343.02 237.226 342.508 245.795 342.581 257.099C343.166 263.349 343.849 269.062 344.751 273.261C342.679 306.244 336.414 318.5 315.988 344.647C309.797 320.038 267.871 311.42 262.801 320.673C254.66 310.053 217.268 324.213 211.808 337.079ZM227.944 353.339C228.749 347.846 231.137 344.306 233.453 340.912C237.938 334.345 240.766 334.784 247.298 335.81C258.974 337.641 270.577 337.274 282.082 334.76C289.589 334.638 297.292 347.821 296.536 353.925C295.805 359.687 284.787 366.571 278.889 366.547C273.624 366.522 268.09 363.69 262.265 357.953C250.491 370.062 238.401 368.72 227.944 353.339Z" fill="#C37C33"></path>
</g>
</g><defs>
<clipPath id="clip0_123_30">
<rect width="512" height="512" fill="white"></rect>
</clipPath>
<clipPath id="SvgjsClipPath1001"><rect width="1000" height="1000" x="0" y="0" rx="400" ry="400"></rect></clipPath></defs></svg></g></g></svg>